<svg xmlns="http://www.w3.org/2000/svg" viewBox="0 0 100 125" x="0px" y="0px"><title>Artboard 22</title><path d="M62.28,65.71l-12-3.94a1,1,0,0,0-.62,0l-12,3.89a1,1,0,0,0-.69.95v5.63a18.88,18.88,0,0,0,7.18,14.63l5.16,3.54a1.17,1.17,0,0,0,.66.19,1.13,1.13,0,0,0,.65-.2l5.16-3.56A18.86,18.86,0,0,0,63,72.29V66.67A1,1,0,0,0,62.28,65.71Zm-11.85,23h0ZM61,72.29a16.82,16.82,0,0,1-6.37,13L50,88.43l-4.62-3.17a16.84,16.84,0,0,1-6.37-13v-4.9l11-3.56,11,3.61Z"/><polygon points="46.27 74.09 44.48 75.87 49.29 80.71 56.61 73.42 54.83 71.63 49.3 77.14 46.27 74.09"/><circle cx="75.71" cy="44.41" r="4.34" transform="matrix(0, -1, 1, 0, 31.15, 120.02)"/><path d="M72.55,50A4.64,4.64,0,0,0,68,54.76V60l15,0V54.79c0-2.57-1.59-4.73-4.15-4.74Z"/><circle cx="25.71" cy="44.41" r="4.34" transform="translate(-18.75 70.02) rotate(-89.89)"/><path d="M33,54.79c0-2.57-1.59-4.73-4.15-4.74H22.55A4.64,4.64,0,0,0,18,54.76V60l15,0Z"/><path d="M75,31.44,59,40.63l0,18.44,16,9.25,16-9.19L91,40.7ZM89,58,75,66l-14-8.1,0-16.13,14-8,14,8.1Z"/><path d="M42,58.88l0-18.44L26,31.18,10,40.37l0,18.44,16,9.25ZM12,41.53l14-8,14,8.1,0,16.13-14,8-14-8.1Z"/><circle cx="26.03" cy="29.13" r="0.86" transform="translate(-3.16 55.1) rotate(-89.89)"/><circle cx="26.04" cy="25.48" r="0.86" transform="translate(0.5 51.47) rotate(-89.89)"/><circle cx="26.04" cy="21.84" r="0.86" transform="translate(4.15 47.83) rotate(-89.88)"/><circle cx="29.32" cy="21.84" r="0.86" transform="translate(7.42 51.12) rotate(-89.88)"/><circle cx="32.97" cy="21.85" r="0.86" transform="translate(11.05 54.78) rotate(-89.88)"/><circle cx="36.62" cy="21.86" r="0.86" transform="translate(14.69 58.43) rotate(-89.88)"/><circle cx="40.27" cy="21.86" r="0.86" transform="translate(18.32 62.09) rotate(-89.89)"/><circle cx="60.42" cy="21.91" r="0.86" transform="translate(38.39 82.28) rotate(-89.88)"/><circle cx="64.07" cy="21.91" r="0.86" transform="translate(42.02 85.93) rotate(-89.88)"/><circle cx="67.72" cy="21.92" r="0.86" transform="translate(45.66 89.59) rotate(-89.88)"/><circle cx="71.36" cy="21.93" r="0.86" transform="translate(49.29 93.25) rotate(-89.88)"/><circle cx="74.74" cy="29.23" r="0.86" transform="translate(45.35 103.91) rotate(-89.88)"/><circle cx="74.74" cy="25.58" r="0.86" transform="translate(49.01 100.28) rotate(-89.88)"/><circle cx="74.75" cy="21.93" r="0.86" transform="translate(52.67 96.64) rotate(-89.88)"/><circle cx="74.56" cy="70.02" r="0.86" transform="translate(4.4 144.44) rotate(-89.88)"/><circle cx="74.56" cy="73.67" r="0.86" transform="translate(0.74 148.07) rotate(-89.88)"/><circle cx="74.55" cy="77.32" r="0.86" transform="translate(-2.91 151.71) rotate(-89.89)"/><circle cx="71.27" cy="77.31" r="0.86" transform="translate(-6.18 148.42) rotate(-89.88)"/><circle cx="67.62" cy="77.3" r="0.86" transform="translate(-9.82 144.77) rotate(-89.88)"/><circle cx="63.97" cy="77.29" r="0.86" transform="translate(-13.45 141.11) rotate(-89.88)"/><circle cx="36.53" cy="77.24" r="0.86" transform="translate(-40.79 113.61) rotate(-89.89)"/><circle cx="32.88" cy="77.23" r="0.86" transform="translate(-44.42 109.95) rotate(-89.88)"/><circle cx="29.23" cy="77.22" r="0.86" transform="translate(-48.06 106.3) rotate(-89.88)"/><circle cx="25.86" cy="69.92" r="0.86" transform="translate(-44.12 95.64) rotate(-89.89)"/><circle cx="25.85" cy="73.57" r="0.86" transform="translate(-47.77 99.27) rotate(-89.88)"/><circle cx="25.84" cy="77.22" r="0.86" transform="translate(-51.43 102.9) rotate(-89.88)"/><circle cx="55.34" cy="50.01" r="0.86" transform="translate(5.22 105.25) rotate(-89.88)"/><circle cx="51.69" cy="50" r="0.86" transform="translate(1.59 101.6) rotate(-89.89)"/><circle cx="48.04" cy="50" r="0.86" transform="translate(-2.05 97.94) rotate(-89.88)"/><circle cx="44.66" cy="49.99" r="0.86" transform="translate(-5.42 94.54) rotate(-89.88)"/><path d="M42.85,33l15.37,0A.81.81,0,0,0,59,32.2l0-14.38a.82.82,0,0,0-.81-.82h-.19v-.49A7.49,7.49,0,0,0,50.58,9h0a7.5,7.5,0,0,0-7.5,7.5V17h-.19a.81.81,0,0,0-.81.8l0,14.37A.81.81,0,0,0,42.85,33ZM52,24.52,52,29H48.85l.08-4.59a2.26,2.26,0,0,1-.87-1.79,2.48,2.48,0,0,1,2.09-2.4,2.45,2.45,0,0,1,2.91,2.38A2.33,2.33,0,0,1,52,24.52Zm-7-8A5.5,5.5,0,0,1,50.57,11h0a5.5,5.5,0,0,1,5.49,5.51V17l-11,0Z"/><text x="0" y="115" fill="#000000" font-size="5px" font-weight="bold" font-family="'Helvetica Neue', Helvetica, Arial-Unicode, Arial, Sans-serif">Created by Maria Kislitsina</text><text x="0" y="120" fill="#000000" font-size="5px" font-weight="bold" font-family="'Helvetica Neue', Helvetica, Arial-Unicode, Arial, Sans-serif">from the Noun Project</text></svg>